PathFileType	4	(X/Y/Z)	KinectSkeleton.trc																																																	
DataRate	CameraRate	NumFrames	NumMarkers	Units	OrigDataRate	OrigDataStartFrame	OrigNumFrames																																													
60	60	11	17	mm	60	99	300																																													
Frame#	Time	Neck			ShoulderMid			R.Shoulder			L.Shoulder			R.Elbow			L.Elbow			R.Wrist			L.Wrist			HipCenter			R.Hip			L.Hip			R.Knee			L.Knee			R.Ankle			L.Ankle			R.Foot			L.Foot		
		X1	Y1	Z1	X2	Y2	Z2	X3	Y3	Z3	X4	Y4	Z4	X5	Y5	Z5	X6	Y6	Z6	X7	Y7	Z7	X8	Y8	Z8	X9	Y9	Z9	X10	Y10	Z10	X11	Y11	Z11	X12	Y12	Z12	X13	Y13	Z13	X14	Y14	Z14	X15	Y15	Z15	X16	Y16	Z16	X17	Y17	Z17
																																																				
99	5.51	-1104.921	1378	408.633	-1104.921	1378	408.633	-1059.861	1318.531	572.821	-1161.223	1303.157	242.632	-919.743	1170.693	779.787	-1198.322	1074.912	76.049	-768.685	1054.817	929.546	-1059.433	928.605	-52.481	-1125.008	826.711	449.474	-1130.158	834.739	533.733	-1119.297	817.808	356.034	-1113.142	440.065	652.214	-1233.165	420.952	355.222	-1286.796	88.671	725.357	-1370.202	50.941	356.907	-1224.893	-65.327	789	-1240.754	-90.876	335.475
100	5.583	-1086.984	1375.704	405.4	-1086.984	1375.704	405.4	-1080.612	1309.392	572.459	-1108.135	1307.881	229.405	-1032.249	1142.75	803.819	-1074.312	1105.162	33.65	-905.721	1026.095	972.866	-881.69	1006.514	-65.92	-1116.075	826.419	440.714	-1125.848	834.805	524.176	-1105.237	817.119	348.157	-1081.586	440.927	631.912	-1221.102	422.606	350.267	-1224.589	74.417	685.815	-1365.774	57.244	349.945	-1134.056	-69.301	735.706	-1240.988	-88.977	341.504
101	5.63	-1067.644	1372.294	402.22	-1067.644	1372.294	402.22	-1090.355	1304.592	566.504	-1052.916	1304.075	226.823	-1144.034	1123.204	783.089	-957.999	1134.387	22.259	-1081.682	978.881	964.255	-724.949	1114.32	-15.071	-1100.695	826.603	439.907	-1113.339	835.826	522.409	-1086.673	816.376	348.417	-1064.907	441.162	615.669	-1202.332	424.225	349.909	-1137.259	55.269	657.586	-1353.586	63.964	346.585	-1015.17	-63.808	701.191	-1240.372	-90.14	340.271
102	5.678	-1058.973	1369.484	403.452	-1058.973	1369.484	403.452	-1097.001	1299.45	564.601	-1022.194	1300.892	230.72	-1191.384	1120.049	769.579	-880.781	1149.629	37.916	-1158.075	964.446	949.874	-643.76	1138.957	28.012	-1090.813	822.192	439.598	-1105.287	831.397	522.016	-1074.763	811.984	348.2	-1055.669	432.173	598.182	-1195.698	420.354	350.343	-1092.643	40.404	641.084	-1354.781	62.408	346.66	-954.696	-64.6	674.064	-1238.929	-90.362	341.23
103	5.753	-1041.395	1371.801	412.816	-1041.395	1371.801	412.816	-1104.884	1295.406	564.66	-968.406	1304.776	249.45	-1263.051	1111.537	724.435	-766.897	1176.106	94.25	-1291.342	932.813	885.527	-531.487	1203.26	127.112	-1073.146	819.998	438.991	-1088.962	827.947	521.934	-1055.606	811.183	347.01	-1035.022	422.592	576.056	-1178.496	416.96	349.168	-1013.795	26.624	618.419	-1349.209	61.185	344.316	-855.645	-51.595	640.302	-1234.297	-94.159	342.316
104	5.799	-1014.359	1363.442	422.769	-1014.359	1363.442	422.769	-1090.39	1286.51	568.167	-916.64	1296.642	273.085	-1290.896	1098.676	661.108	-683.851	1184.425	153.737	-1377.62	910.311	785.73	-455.872	1204.079	222.428	-1053.363	812.681	440.608	-1065.671	818.039	524.233	-1039.714	806.74	347.871	-1001.179	413.156	564.202	-1157.551	411.569	350.65	-963.925	17.846	594.936	-1346.424	65.756	343.061	-801.051	-49.657	615.853	-1234.769	-91.564	338.36
105	5.845	-1000	1357.73	429.897	-1000	1357.73	429.897	-1080.958	1279.39	571.086	-891.917	1292.509	287.591	-1302.337	1105.039	635.965	-653.861	1177.712	184.193	-1398.794	907.611	735.458	-436.926	1220.093	272.953	-1038.48	808.506	445.029	-1048.405	813.619	528.728	-1027.474	802.835	352.211	-987.596	408.931	563.305	-1147.151	409.507	352.406	-957.725	13.769	587.845	-1341.578	68.192	343.196	-798.799	-59.738	613.766	-1235.833	-92.397	336.601
106	5.891	-982.173	1349.901	437.16	-982.173	1349.901	437.16	-1063.224	1272.191	576.231	-870.969	1287.107	298.8	-1291.579	1104.26	617.777	-629.579	1169.899	214.856	-1403.346	907.448	694.459	-419.167	1225.079	306.346	-1021.157	805.799	450.697	-1029.186	810.869	533.814	-1012.255	800.178	358.524	-973.512	408.936	563.882	-1132.142	410.918	354.784	-945.407	17.144	585.028	-1330.426	76.085	344.589	-797.754	-74.723	607.686	-1243.123	-93.136	335.997
107	5.938	-942.379	1344.439	453.913	-942.379	1344.439	453.913	-1021.32	1252.217	585.525	-825.617	1286.632	319.901	-1229.926	1061.891	621.146	-585.899	1163.337	246.672	-1399.121	898.471	653.303	-382.662	1227.137	344.607	-977.634	803.843	465.332	-988.067	809.933	547.563	-966.065	797.09	374.141	-954.231	407.764	570.422	-1096.95	414.283	364.758	-946.24	17.235	582.929	-1309.435	91.88	342.929	-800.723	-74.516	610.547	-1246.658	-86.596	334.796
108	5.984	-919.05	1343.966	460.505	-919.05	1343.966	460.505	-993.709	1255.809	596.342	-803.915	1288.942	324.747	-1194.737	1055.18	610.492	-562.001	1163.168	265.182	-1324.019	857.607	633.239	-363.565	1219.32	376.262	-959.456	804.735	474.02	-968.658	811.18	556.296	-949.252	797.588	382.779	-945.962	408.297	573.215	-1075.844	413.809	370.322	-948.615	17.915	580.623	-1298.553	99.056	345.14	-803.232	-72.99	610.651	-1245.501	-82.127	332.693
109	6.03	-883.443	1344.174	481.442	-883.443	1344.174	481.442	-966.16	1263.889	615.92	-771.752	1290.275	341.998	-1177.342	1073.322	620.046	-535.888	1157.916	272.698	-1213.708	842.97	663.948	-326.041	1195.903	369.828	-923.49	804.938	488.659	-930.052	810.602	571.278	-916.213	798.657	397.036	-923.105	406.696	579.103	-1025.491	409.736	377.045	-938.257	16.369	579.285	-1261.927	107.839	328.244	-800.682	-86.971	606.123	-1241.923	-80.346	331.692
